<?xml version="1.0" standalone="no"?><!DOCTYPE svg PUBLIC "-//W3C//DTD SVG 1.1//EN" "http://www.w3.org/Graphics/SVG/1.1/DTD/svg11.dtd"><svg t="1595050710493" class="icon" viewBox="0 0 1024 1024" version="1.1" xmlns="http://www.w3.org/2000/svg" p-id="10107" xmlns:xlink="http://www.w3.org/1999/xlink" width="200" height="200"><defs><style type="text/css"></style></defs><path d="M716.2 891.7c-96.8 0-175.5-78.7-175.5-175.5V568.4c0-15.3 12.4-27.7 27.7-27.7h147.8c96.8 0 175.5 78.7 175.5 175.5s-78.8 175.5-175.5 175.5z m0-27.7c81.5 0 147.8-66.3 147.8-147.8s-66.3-147.8-147.8-147.8H568.3v147.8c0 81.5 66.3 147.8 147.9 147.8z m-28.1-73.9M891.6 309.9c0 96.7-78.7 175.5-175.5 175.5H568.3c-15.3 0-27.7-12.4-27.7-27.7V309.9c0-96.7 78.7-175.5 175.5-175.5s175.5 78.8 175.5 175.5zM716.2 162.1c-81.5 0-147.8 66.3-147.8 147.8v147.8h147.8c81.5 0 147.8-66.3 147.8-147.8s-66.3-147.8-147.8-147.8z m-28.1 74M134.4 716.2c0-96.7 78.7-175.5 175.5-175.5h147.8c15.3 0 27.7 12.4 27.7 27.7v147.8c0 96.7-78.7 175.5-175.5 175.5S134.4 813 134.4 716.2zM309.8 864c81.5 0 147.8-66.3 147.8-147.8V568.4H309.8c-81.5 0-147.8 66.3-147.8 147.8S228.3 864 309.8 864z m28.1-73.9M309.8 134.5c96.8 0 175.5 78.7 175.5 175.5v147.8c0 15.3-12.4 27.7-27.7 27.7H309.8c-96.8 0-175.5-78.7-175.5-175.5s78.8-175.5 175.5-175.5z m0 27.6c-81.5 0-147.8 66.3-147.8 147.8s66.3 147.8 147.8 147.8h147.8V309.9c0.1-81.5-66.2-147.8-147.8-147.8z m28.1 74" fill="#3259CE" p-id="10108"></path></svg>